# xmcd
#
# Track frame offsets:
#	150
#	24957
#	42857
#	60530
#	82012
#	102230
#	124202
#	143542
#	156472
#	173675
#	190235
#	209140
#	225062
#	237877
#	257282
#	280175
#	296632
#
# Disc length: 4330 seconds
#
# Revision: 1
# Processed by: cddbd v1.4PL0 Copyright (c) Steve Scherf et al.
# Submitted via: audiograbber 1.80
#
DISCID=e510e811
DTITLE=Rythm and Black - volume3
DYEAR=1900
DGENRE=
TTITLE0=You Make Me Feel Brand New
TTITLE1=Being With You
TTITLE2=Sail On
TTITLE3=It That'll Make You Happy
TTITLE4=Just One Moment Away
TTITLE5=Always and Forever
TTITLE6=All Night Long
TTITLE7=Love Machine
TTITLE8=Fantasy
TTITLE9=Best Of My Love
TTITLE10=Its Gonna Take A Miracle
TTITLE11=What I Did For Love
TTITLE12=All I Have To Do Is Dream
TTITLE13=Shakey Ground
TTITLE14=One More Chance
TTITLE15=So Amazing
TTITLE16=Is It A Crime
EXTD=
EXTT0=
EXTT1=
EXTT2=
EXTT3=
EXTT4=
EXTT5=
EXTT6=
EXTT7=
EXTT8=
EXTT9=
EXTT10=
EXTT11=
EXTT12=
EXTT13=
EXTT14=
EXTT15=
EXTT16=
PLAYORDER=
